<svg width="16" height="16" viewBox="0 0 16 16" fill="none" xmlns="http://www.w3.org/2000/svg">
<path d="M2.22518 0.810956C1.83465 0.420436 1.20149 0.420436 0.810956 0.810956C0.420436 1.20149 0.420436 1.83465 0.810956 2.22518L6.58568 7.99988L0.811017 13.7746C0.420496 14.1651 0.420496 14.7983 0.811017 15.1888C1.20155 15.5793 1.83471 15.5793 2.22523 15.1888L7.99988 9.41408L13.7746 15.1888C14.1651 15.5793 14.7983 15.5793 15.1888 15.1888C15.5793 14.7983 15.5793 14.1651 15.1888 13.7746L9.41408 7.99988L15.1889 2.22518C15.5794 1.83465 15.5794 1.20149 15.1889 0.810956C14.7984 0.420436 14.1652 0.420436 13.7747 0.810956L7.99988 6.58568L2.22518 0.810956Z" fill="#E84949"/>
</svg>
